<svg width="27" height="26" viewBox="0 0 27 26" fill="none" xmlns="http://www.w3.org/2000/svg">
<path d="M2.34049 11.3657H25.1477C25.1705 11.3657 25.1933 11.3564 25.207 11.3379C25.2252 11.3193 25.2344 11.3007 25.2344 11.2729V9.29964C25.2344 9.27643 25.2252 9.25321 25.207 9.23929C25.1933 9.22071 25.1705 9.21143 25.1477 9.21143H1.85231C1.8295 9.21143 1.80669 9.22071 1.793 9.23929C1.77476 9.25321 1.76563 9.27643 1.76563 9.29964V11.2729C1.76563 11.3007 1.77476 11.3239 1.78844 11.3379L1.793 11.3332C1.80669 11.3518 1.8295 11.3611 1.85231 11.3611L2.34049 11.3657ZM12.0172 0H14.9782C15.439 0 15.8359 0.306429 15.9774 0.728929H17.1362C17.7932 0.728929 18.368 0.947143 18.8425 1.3325C19.3124 1.70857 19.6729 2.24714 19.901 2.88321L21.3655 7.41464H25.1431C25.6495 7.41464 26.1149 7.62821 26.4525 7.96714C26.7901 8.30607 26.9954 8.77964 26.9954 9.29964V11.2729C26.9954 11.7929 26.7856 12.2618 26.4525 12.6054C26.1788 12.8839 25.8138 13.0836 25.4077 13.1393L23.4322 25.2432C23.3638 25.6843 22.9897 25.9954 22.5654 25.9954V26H4.43461C3.97381 26 3.59513 25.6425 3.55863 25.1829L1.59226 13.1393C1.18621 13.0789 0.821223 12.8839 0.547482 12.6054V12.6007C0.209868 12.2618 0 11.7929 0 11.2729V9.29964C0 8.78429 0.209868 8.31071 0.54292 7.96714C0.875972 7.62357 1.34133 7.41464 1.85231 7.41464H5.62994L7.09446 2.88321C7.32258 2.24714 7.68756 1.71321 8.15292 1.3325C8.63197 0.947143 9.20683 0.728929 9.85924 0.728929H11.0181C11.1641 0.306429 11.5564 0 12.0172 0ZM15.9044 2.52571C15.7264 2.85536 15.3751 3.07821 14.9828 3.07821H12.0218C11.6249 3.07821 11.2781 2.85536 11.1002 2.52571H9.86381C9.62656 2.52571 9.42126 2.60464 9.25245 2.73929C9.04258 2.91107 8.86921 3.17107 8.75059 3.50071L7.48226 7.41464H19.5177L18.2494 3.50071C18.1308 3.17107 17.9574 2.91107 17.7476 2.73929C17.5787 2.60464 17.3734 2.52571 17.1362 2.52571H15.9044ZM14.3805 21.0554C14.3805 21.5521 13.9836 21.9561 13.4954 21.9561C13.0073 21.9561 12.6103 21.5568 12.6103 21.0554V16.3104C12.6103 15.8136 13.0073 15.4096 13.4954 15.4096C13.9836 15.4096 14.3805 15.8136 14.3805 16.3104V21.0554ZM18.879 21.1993C18.8015 21.6868 18.3452 22.0211 17.8707 21.9375C17.3917 21.8586 17.0632 21.3989 17.1408 20.9114L17.9164 16.1664C17.9939 15.6789 18.4456 15.3446 18.9246 15.4282C19.4037 15.5071 19.7322 15.9668 19.6501 16.4543L18.879 21.1993ZM9.85924 20.9114C9.9368 21.3989 9.60831 21.8586 9.12927 21.9375C8.65022 22.0164 8.19855 21.6868 8.12099 21.1993L7.34539 16.4543C7.26783 15.9668 7.59175 15.5025 8.0708 15.4282C8.54985 15.3493 9.00152 15.6789 9.07908 16.1664L9.85924 20.9114ZM3.37614 13.1625L5.17827 24.2032H21.8172L23.6193 13.1625H3.37614Z" fill="white"/>
</svg>
