<?xml version="1.0" encoding="utf-8"?>
<!-- Generator: Adobe Illustrator 23.1.0, SVG Export Plug-In . SVG Version: 6.00 Build 0)  -->
<svg version="1.1" xmlns="http://www.w3.org/2000/svg" xmlns:xlink="http://www.w3.org/1999/xlink" x="0px" y="0px"
	 viewBox="0 0 606 193.2" style="enable-background:new 0 0 606 193.2;" xml:space="preserve">
<style type="text/css">
	.st0{fill:#A3A2A2;}
	.st1{fill:#EB5E1C;}
	.st2{fill:#FFE91C;}
	.st3{fill:#162333;}
	.st4{fill:none;stroke:#000000;stroke-width:1.1496;stroke-miterlimit:10;}
	.st5{fill:none;stroke:#000000;stroke-width:0.8117;stroke-miterlimit:10;}
	.st6{fill:#010202;}
	.st7{fill:none;}
	.st8{fill:none;stroke:#010202;stroke-width:1.2062;stroke-linecap:round;stroke-linejoin:round;stroke-miterlimit:10;}
	.st9{fill:#EB5E1C;stroke:#010202;stroke-width:1.2062;stroke-linecap:round;stroke-linejoin:round;stroke-miterlimit:10;}
	.st10{fill:none;stroke:#010202;stroke-width:1.8092;stroke-miterlimit:10;}
	.st11{fill:none;stroke:#010202;stroke-width:0.9046;stroke-linecap:round;stroke-linejoin:round;stroke-miterlimit:10;}
	.st12{fill:none;stroke:#010202;stroke-width:0.519;stroke-linecap:round;stroke-linejoin:round;stroke-miterlimit:10;}
	.st13{fill:#EB5E1C;stroke:#010202;stroke-width:0.519;stroke-linecap:round;stroke-linejoin:round;stroke-miterlimit:10;}
	.st14{fill:#EB5E1C;stroke:#010202;stroke-width:0.8313;stroke-linecap:round;stroke-linejoin:round;stroke-miterlimit:10;}
	.st15{fill:none;stroke:#010202;stroke-width:0.8313;stroke-linecap:round;stroke-linejoin:round;stroke-miterlimit:10;}
	.st16{fill:#FFFFFF;}
	.st17{fill:none;stroke:#000000;stroke-width:2;stroke-miterlimit:10;}
	.st18{fill:#1E1E1E;}
</style>
<g id="Calque_3">
</g>
<g id="Calque_2">
</g>
<g id="Calque_1">
	<g>
		<path class="st16" d="M0,150.4v-1.9h0.2c4.6,0,8.3-1.4,11.1-4.2s4.2-6.5,4.2-11.1V24.4c0-4.6-1.4-8.3-4.3-11.1
			C8.3,10.6,4.6,9.2,0,9.2V7.3h19.5c6.5,0,11.5-0.7,14.9-2.1C37.5,3.8,39.8,2,41,0H43v100.4l32.5-27.3c5.2-4.3,8.3-8.2,9.4-11.6
			c0.8-3.2-0.1-5-2.5-5.5l-2.5-0.6v-1.9h28.4v1.9l-1.9,0.4c-3.1,0.5-6.2,1.8-9.5,3.8c-3.2,2-7.9,5.6-14,10.7L69.7,81.3l38,58.4
			c2.4,3.2,4.5,5.4,6.3,6.8c1.8,1.3,3.8,2,5.9,2v1.9H69.5v-1.9c3.2,0,5.3-0.3,6.3-0.8c1.1-0.4,1.7-1.2,1.7-2.5
			c0-1.1-0.4-2.6-1.3-4.4c-0.5-1-1.1-2.2-1.8-3.5c-0.7-1.3-1.6-2.8-2.6-4.5L50,97.9l-7.1,6.1v29.2c0,4.6,1.4,8.3,4.2,11.1
			c2.8,2.8,6.5,4.2,11.1,4.2h0.2v1.9H0z"/>
		<path class="st16" d="M149.7,153.1c-7.8,0-14-2.1-18.7-6.3c-4.7-4.2-7.1-9.7-7.1-16.6c0-2.9,0.5-5.7,1.5-8.3
			c1-2.6,2.9-5.2,5.7-7.7c2.9-2.5,6.9-5.2,12-7.9c5.1-2.7,11.8-5.6,20.2-8.7l17.8-6.5V76.7c0-7.3-1.1-13-3.4-17.3
			c-2.3-4.3-5.5-6.4-9.5-6.4c-4.8,0.1-8.9,3.3-12.3,9.5c-3.4,6.2-5.6,14.9-6.8,26l-20.6-11.8c2.2-5.2,5.5-9.8,9.9-13.7
			c4.5-3.9,9.6-7,15.4-9.2c5.8-2.2,11.9-3.3,18.2-3.3c10.8,0,19.6,3,26.4,9.1c6.8,6,10.2,14.3,10.2,24.7v46c0,7.4,2.5,11.1,7.4,11.1
			c2.9,0,5.8-1.6,8.6-4.8l1.5,1.3c-3.3,4.5-7.3,8.1-12,10.9c-4.7,2.8-9.3,4.2-13.7,4.2c-4.8,0-9-1.7-12.5-5
			c-3.5-3.3-5.7-7.7-6.6-13.2c-6.2,6.4-11.7,11-16.3,13.8C160.4,151.7,155.3,153.1,149.7,153.1z M164,141.3c2.8,0,5.5-0.7,8.1-2.1
			c2.6-1.4,5.6-3.7,8.9-6.9l0.2-38.8l-7.6,2.9c-6.5,2.4-11.5,4.9-14.9,7.3c-3.4,2.5-5.8,5.3-7.2,8.3c-1.3,3.1-2,6.6-2,10.5
			c0,5.5,1.4,10,4.1,13.5C156.3,139.5,159.8,141.3,164,141.3z"/>
		<path class="st16" d="M227.4,150.4v-1.9c4.6,0,8.3-1.4,11.2-4.1c2.9-2.7,4.3-6.5,4.3-11.2V24.4c0-4.6-1.4-8.3-4.3-11.1
			c-2.9-2.8-6.6-4.2-11.2-4.2V7.3h19.5c6.5,0,11.5-0.7,14.9-2.1c3.2-1.4,5.4-3.1,6.7-5.2h1.9v133.3c0,4.7,1.4,8.4,4.3,11.2
			c2.9,2.7,6.6,4.1,11.2,4.1v1.9H227.4z"/>
		<path class="st16" d="M316.5,153.1c-7.8,0-14-2.1-18.7-6.3c-4.7-4.2-7.1-9.7-7.1-16.6c0-2.9,0.5-5.7,1.5-8.3
			c1-2.6,2.9-5.2,5.7-7.7c2.9-2.5,6.9-5.2,12-7.9c5.1-2.7,11.8-5.6,20.2-8.7l17.8-6.5V76.7c0-7.3-1.1-13-3.4-17.3
			c-2.3-4.3-5.5-6.4-9.5-6.4c-4.8,0.1-8.9,3.3-12.3,9.5c-3.4,6.2-5.6,14.9-6.8,26l-20.6-11.8c2.2-5.2,5.5-9.8,9.9-13.7
			c4.5-3.9,9.6-7,15.4-9.2c5.8-2.2,11.9-3.3,18.2-3.3c10.8,0,19.6,3,26.4,9.1c6.8,6,10.2,14.3,10.2,24.7v46c0,7.4,2.5,11.1,7.4,11.1
			c2.9,0,5.8-1.6,8.6-4.8l1.5,1.3c-3.3,4.5-7.3,8.1-12,10.9c-4.7,2.8-9.3,4.2-13.7,4.2c-4.8,0-9-1.7-12.5-5
			c-3.5-3.3-5.7-7.7-6.6-13.2c-6.2,6.4-11.7,11-16.3,13.8C327.3,151.7,322.1,153.1,316.5,153.1z M330.9,141.3c2.8,0,5.5-0.7,8.1-2.1
			c2.6-1.4,5.6-3.7,8.9-6.9l0.2-38.8l-7.6,2.9c-6.5,2.4-11.5,4.9-14.9,7.3c-3.4,2.5-5.8,5.3-7.2,8.3c-1.3,3.1-2,6.6-2,10.5
			c0,5.5,1.4,10,4.1,13.5C323.2,139.5,326.7,141.3,330.9,141.3z"/>
		<path class="st16" d="M393.3,150.4v-1.9c2.3-0.4,5.2-1.7,8.6-3.8c3.1-2.2,6.7-6.2,10.9-12l18.1-25c-2-3.3-4-6.6-5.9-9.9
			s-3.9-6.6-5.9-9.7c-2-3.3-4.1-6.7-6.2-10.1s-4.2-7-6.4-10.7c-2.7-4.2-4.9-7.2-6.7-8.9c-1.8-1.7-3.9-2.7-6.5-3v-1.9h49.6v1.9
			c-4.1,0.3-6.3,2-6.6,5.3c-0.3,3.3,0.7,7,3.2,11.1c1.9,3.3,3.8,6.5,5.5,9.6c1.8,3.1,3.6,6,5.3,9l12.8-17.9
			c3.2-4.5,4.6-8.3,4.1-11.6c-0.4-3.3-2.6-5.1-6.4-5.3v-1.9h27.7v1.9c-3.6,0.4-7,1.7-10.2,3.8c-3.2,2.2-7,6.2-11.2,12l-15.5,21.4
			c4.5,7.6,8.9,15.1,13.4,22.4s9.3,15.2,14.5,23.8c2.2,3.4,4,5.9,5.6,7.3c1.6,1.4,3.6,2.2,6,2.5v1.9h-49.6v-1.9
			c3.9-0.3,6.2-1.9,6.9-5c0.6-3.1-0.4-6.9-3.2-11.6c-2.2-3.9-4.3-7.7-6.5-11.4c-2.2-3.6-4.3-7.2-6.5-10.8l-16.8,23.7
			c-2.9,4.1-3.8,7.5-2.8,10.4c1.1,2.9,3.8,4.4,8.3,4.7v1.9H393.3z"/>
		<path class="st16" d="M495.4,193.2c-5.2,0-10.2-1-15.1-3.1l7.4-22.3c3.2,1.3,6.6,2.4,10.4,3.2c3.8,0.9,7.5,1.3,11.4,1.3
			c4.8,0,9.4-1,13.7-3c4.3-2,7.5-5.6,9.6-11l2.1-5.2l-37.8-87.6c-1.3-3.1-3-5.5-5.1-7.3c-2.1-1.8-5-2.8-8.7-3v-1.9h55.2v1.9
			c-3.4,0.4-6.1,1.6-7.9,3.6c-1.8,2-2.8,4.6-2.8,7.8c0,2.8,0.6,5.7,1.9,8.6l19.3,45.3l19.3-45.3c1.3-2.9,1.9-5.8,1.9-8.6
			c0-3.2-0.9-5.8-2.8-7.8c-1.8-2-4.6-3.2-8.1-3.6v-1.9h26.3v1.9c-2.9,0.6-5.4,2.5-7.4,5.6c-2,3.1-4.2,7.4-6.5,12.7l-38.9,90.5
			c-4.1,9.4-9.4,16.6-15.8,21.6C510.5,190.7,503.3,193.2,495.4,193.2z"/>
		<path class="st16" d="M589.7,153.1c-4.5,0-8.3-1.6-11.5-4.8c-3.2-3.2-4.8-7-4.8-11.5c0-4.7,1.7-8.6,5-11.6
			c3.3-3.1,7.1-4.6,11.3-4.6c4.2,0,8,1.5,11.3,4.6c3.3,3.1,5,6.9,5,11.6c0,4.5-1.6,8.3-4.8,11.5C598,151.5,594.2,153.1,589.7,153.1z
			"/>
	</g>
</g>
</svg>
