<?xml version="1.0" encoding="utf-8"?>
<!-- Generator: Adobe Illustrator 23.1.0, SVG Export Plug-In . SVG Version: 6.00 Build 0)  -->
<svg version="1.1" xmlns="http://www.w3.org/2000/svg" xmlns:xlink="http://www.w3.org/1999/xlink" x="0px" y="0px"
	 viewBox="0 0 572.6 149.6" style="enable-background:new 0 0 572.6 149.6;" xml:space="preserve">
<style type="text/css">
	.st0{fill:#A3A2A2;}
	.st1{fill:#EB5E1C;}
	.st2{fill:#FFE91C;}
	.st3{fill:#162333;}
	.st4{fill:none;stroke:#000000;stroke-width:1.1496;stroke-miterlimit:10;}
	.st5{fill:none;stroke:#000000;stroke-width:0.8117;stroke-miterlimit:10;}
	.st6{fill:#010202;}
	.st7{fill:none;}
	.st8{fill:none;stroke:#010202;stroke-width:1.2062;stroke-linecap:round;stroke-linejoin:round;stroke-miterlimit:10;}
	.st9{fill:#EB5E1C;stroke:#010202;stroke-width:1.2062;stroke-linecap:round;stroke-linejoin:round;stroke-miterlimit:10;}
	.st10{fill:none;stroke:#010202;stroke-width:1.8092;stroke-miterlimit:10;}
	.st11{fill:none;stroke:#010202;stroke-width:0.9046;stroke-linecap:round;stroke-linejoin:round;stroke-miterlimit:10;}
	.st12{fill:none;stroke:#010202;stroke-width:0.519;stroke-linecap:round;stroke-linejoin:round;stroke-miterlimit:10;}
	.st13{fill:#EB5E1C;stroke:#010202;stroke-width:0.519;stroke-linecap:round;stroke-linejoin:round;stroke-miterlimit:10;}
	.st14{fill:#EB5E1C;stroke:#010202;stroke-width:0.8313;stroke-linecap:round;stroke-linejoin:round;stroke-miterlimit:10;}
	.st15{fill:none;stroke:#010202;stroke-width:0.8313;stroke-linecap:round;stroke-linejoin:round;stroke-miterlimit:10;}
	.st16{fill:#FFFFFF;}
	.st17{fill:none;stroke:#000000;stroke-width:2;stroke-miterlimit:10;}
	.st18{fill:#1E1E1E;}
</style>
<g id="Calque_3">
</g>
<g id="Calque_2">
</g>
<g id="Calque_1">
	<g>
		<polygon class="st1" points="58.3,34.9 91.5,34.9 148.5,148.5 1,148.5 		"/>
		<g>
			<g>
				<path class="st18" d="M104.3,93.7H17.9c-0.3,0-0.6,0.3-0.6,0.6v32.3c0,0.3,0.3,0.6,0.6,0.6h3.4v9.5h3.4v-9.5H98v9.5h3.4v-9.5
					h2.8c0.3,0,0.6-0.3,0.6-0.6V94.3C104.9,94,104.6,93.7,104.3,93.7z M45.9,126H18.5V94.9h27.5V126z M74.7,126H47.1V94.9h27.6V126z
					 M103.6,126H75.9V94.9h27.7V126z"/>
			</g>
			<g>
				<path class="st18" d="M50.7,114c-0.3,0-0.6-0.3-0.6-0.6v-5.3c0-0.3,0.3-0.6,0.6-0.6s0.6,0.3,0.6,0.6v5.3
					C51.3,113.7,51.1,114,50.7,114z"/>
			</g>
			<g>
				<path class="st18" d="M41.6,114c-0.3,0-0.6-0.3-0.6-0.6v-5.3c0-0.3,0.3-0.6,0.6-0.6s0.6,0.3,0.6,0.6v5.3
					C42.2,113.7,41.9,114,41.6,114z"/>
			</g>
		</g>
		<g>
			<g>
				<rect x="92.4" y="115.5" class="st1" width="26.2" height="4.8"/>
			</g>
			<g>
				<path class="st18" d="M128.2,102.8V91.3c0-2.7-2.2-4.9-4.9-4.9H93.5c-2.7,0-4.9,2.2-4.9,4.9v11.5c-2.7,0.5-4.7,2.9-4.7,5.6v22.7
					c0,0.3,0.3,0.6,0.6,0.6h3.8v5.1h1.8v-5.1h36.5v5.1h1.8v-5.1h4.3c0.3,0,0.6-0.3,0.6-0.6v-22.7C133.4,105.5,131.1,103,128.2,102.8
					z M89.9,91.3c0-2,1.6-3.6,3.7-3.6h29.8c2,0,3.6,1.6,3.6,3.6v11.5c0,0-0.1,0-0.1,0c-1,0.1-1.9,0.5-2.7,1
					c-0.2,0.1-0.3,0.2-0.4,0.3c-1.2,1-2,2.6-2,4.3v5.8H95.6v-5.8c0-3.2-2.6-5.7-5.7-5.7h0V91.3z M95.6,115.5h26.2v4.8H95.6V115.5z
					 M132.2,130.6h-47v-22.1c0-2.1,1.5-3.9,3.5-4.4c0.2,0,0.4-0.1,0.6-0.1c0,0,0,0,0.1,0c0.1,0,0.3,0,0.4,0h0.2c2.5,0,4.5,2,4.5,4.5
					v12.4c0,0.3,0.3,0.6,0.6,0.6h27.4c0.3,0,0.6-0.3,0.6-0.6v-12.4c0-0.2,0-0.3,0-0.4c0-0.1,0-0.3,0.1-0.4c0-0.1,0.1-0.3,0.1-0.4
					c0-0.2,0.1-0.3,0.2-0.4c0-0.1,0.1-0.2,0.1-0.3c0.1-0.1,0.1-0.2,0.2-0.3c0-0.1,0.1-0.2,0.2-0.2c0.1-0.1,0.1-0.2,0.2-0.3
					c0.1-0.1,0.2-0.2,0.3-0.3c0.1-0.1,0.2-0.2,0.3-0.2c0.1,0,0.1-0.1,0.2-0.1c0,0,0,0,0.1,0c0.1-0.1,0.3-0.2,0.4-0.3
					c0.1,0,0.2-0.1,0.3-0.1c0.4-0.2,0.9-0.4,1.4-0.4c0.2,0,0.3,0,0.5,0h0.2c0.2,0,0.3,0,0.5,0c2.2,0.2,4,2.2,4,4.5V130.6z"/>
				<path class="st7" d="M132.2,108.5v10l-2-3.7l-1.2-2.2l-1.7-3.1l-0.5-0.9l-2-3.6c0,0,0,0,0.1,0c0.1-0.1,0.3-0.2,0.4-0.3
					c0.1,0,0.2-0.1,0.3-0.1c0.4-0.2,0.9-0.4,1.4-0.4c0.2,0,0.3,0,0.5,0h0.2c0.2,0,0.3,0,0.5,0C130.5,104.2,132.2,106.1,132.2,108.5z
					"/>
				<path class="st7" d="M127,91.3v11.5c0,0-0.1,0-0.1,0c-1,0.1-1.9,0.5-2.7,1l-0.5-1l-4.4-8.1l-0.5-1l-3-6h7.6
					C125.4,87.6,127,89.3,127,91.3z"/>
				<path class="st1" d="M124.2,103.8c-0.2,0.1-0.3,0.2-0.4,0.3c-1.2,1-2,2.6-2,4.3v5.8H95.6v-5.8c0-3.2-2.6-5.7-5.7-5.7h0V91.3
					c0-2,1.6-3.6,3.7-3.6h22.2l3,6l0.5,1l4.4,8.1L124.2,103.8z"/>
				<path class="st1" d="M132.2,118.5v12.1h-47v-22.1c0-2.1,1.5-3.9,3.5-4.4c0.2,0,0.4-0.1,0.6-0.1c0,0,0,0,0.1,0c0.1,0,0.3,0,0.4,0
					h0.2c2.5,0,4.5,2,4.5,4.5v12.4c0,0.3,0.3,0.6,0.6,0.6h27.4c0.3,0,0.6-0.3,0.6-0.6v-12.4c0-0.2,0-0.3,0-0.4c0-0.1,0-0.3,0.1-0.4
					c0-0.1,0.1-0.3,0.1-0.4c0-0.2,0.1-0.3,0.2-0.4c0-0.1,0.1-0.2,0.1-0.3c0.1-0.1,0.1-0.2,0.2-0.3c0-0.1,0.1-0.2,0.2-0.2
					c0.1-0.1,0.1-0.2,0.2-0.3c0.1-0.1,0.2-0.2,0.3-0.3c0.1-0.1,0.2-0.2,0.3-0.2c0.1,0,0.1-0.1,0.2-0.1l2,3.6l0.5,0.9l1.7,3.1
					l1.2,2.2L132.2,118.5z"/>
			</g>
		</g>
		<g>
			<g>
				<polygon class="st1" points="44.9,77.7 44.9,80.6 37.3,80.6 38.7,77.7 				"/>
			</g>
			<g>
				<polygon class="st1" points="43.2,81.4 41.4,93.7 31.3,93.7 31.2,92.8 31.2,92.8 31.3,92.5 36.9,81.4 				"/>
			</g>
			<g>
				<path class="st18" d="M36.6,67.3c0.4,0.7,1,1.1,1.7,1.1c0.1,0,0.1,0,0.2,0c2.5,0,6.2-3.9,7.8-5.7c0.4-0.4,0.6-0.8,0.8-0.9
					c0.1-0.1,0.1-0.3,0-0.5c0,0,0-0.1-0.1-0.1c-0.1-0.1-0.2-0.1-0.4-0.1c-0.3,0.1-8.6,1.3-10.1,4.1v-4.6c0,0,0,0.1,0.1,0.2
					c0.4,0.7,1,1.1,1.7,1.1c0.1,0,0.1,0,0.2,0c3.1,0,8-6,8.5-6.6c0.1-0.1,0.1-0.3,0-0.5c-0.1-0.2-0.2-0.2-0.4-0.2
					c-0.3,0.1-8.6,1.3-10.1,4.1v-3.3c0.6-0.1,1.1-0.4,1.4-0.9c1.8-2.6-1.1-10.5-1.2-10.8c-0.1-0.2-0.2-0.3-0.4-0.3
					c-0.2,0-0.3,0.1-0.4,0.3c-0.3,0.8-3.3,8.3-1.6,10.8c0.3,0.5,0.8,0.8,1.4,0.9v3.3c-1.4-2.9-9.7-4.1-10.1-4.1
					c-0.2,0-0.3,0.1-0.4,0.2c-0.1,0.1-0.1,0.3,0,0.5c0.6,0.7,5.4,6.7,8.5,6.7c0.1,0,0.1,0,0.2,0c0.7-0.1,1.3-0.5,1.7-1.1
					c0-0.1,0.1-0.1,0.1-0.2v4.6c-1.4-2.9-9.7-4.1-10.1-4.1c-0.2,0-0.3,0.1-0.4,0.2c-0.1,0.1-0.1,0.3,0,0.5c0.6,0.7,5.4,6.6,8.5,6.6
					c0.1,0,0.1,0,0.2,0c0.7-0.1,1.3-0.5,1.7-1.1c0-0.1,0.1-0.1,0.1-0.2v4.6c-1.4-2.9-9.7-4.1-10.1-4.1c-0.2,0-0.3,0.1-0.4,0.2
					c-0.1,0.1-0.1,0.3,0,0.5c0.6,0.7,5.4,6.6,8.5,6.6c0.1,0,0.1,0,0.2,0c0.7-0.1,1.3-0.5,1.7-1.1c0-0.1,0.1-0.1,0.1-0.2v3.2h-8.3
					c-0.2,0-0.4,0.2-0.4,0.4V81c0,0.2,0.2,0.4,0.4,0.4h1.2l2,12.6l0,0.2c0,0.2,0.2,0.3,0.4,0.3h10.8c0.2,0,0.4-0.1,0.4-0.4L44,81.4
					h1.2c0.2,0,0.4-0.2,0.4-0.4v-3.7c0-0.2-0.2-0.4-0.4-0.4h-8.8v-3.2c0,0.1,0,0.1,0.1,0.2c0.4,0.7,1,1.1,1.7,1.1c0.1,0,0.1,0,0.2,0
					c0.6,0,1.3-0.2,2-0.6c2.9-1.5,6.1-5.5,6.5-6c0.1-0.1,0.1-0.3,0-0.5c-0.1-0.1-0.2-0.2-0.4-0.2c-0.1,0-1.5,0.2-3.1,0.6
					c-2.6,0.6-6,1.8-6.9,3.5v-4.6C36.5,67.2,36.6,67.2,36.6,67.3z M37.3,65.6c0.9-1.8,5.6-3,8.3-3.5c-1.8,2.1-5.3,5.7-7.3,5.5
					c-0.4,0-0.8-0.3-1-0.7S37,66,37.3,65.6z M37.3,59.1c0.9-1.8,5.6-3,8.3-3.5c-1.8,2.1-5.3,5.6-7.3,5.5c-0.4,0-0.8-0.3-1-0.7
					S37,59.5,37.3,59.1z M34.9,60.4c-0.2,0.5-0.6,0.7-1,0.7c-2,0.2-5.4-3.3-7.3-5.5c2.7,0.5,7.5,1.7,8.3,3.5
					C35.1,59.5,35.1,59.9,34.9,60.4z M34.9,66.9c-0.2,0.5-0.6,0.7-1,0.7c-1.9,0.2-5.4-3.4-7.3-5.5c2.7,0.5,7.5,1.7,8.3,3.5
					C35.1,66,35.1,66.4,34.9,66.9z M34.9,73.4c-0.2,0.5-0.6,0.7-1,0.7c-1.9,0.2-5.4-3.4-7.3-5.5c2.7,0.5,7.5,1.7,8.3,3.5
					C35.1,72.5,35.1,72.9,34.9,73.4z M37.3,72.1c0.1-0.3,0.4-0.5,0.7-0.8c0.1-0.1,0.1-0.1,0.2-0.1c0.2-0.1,0.4-0.3,0.6-0.4
					c0.1,0,0.2-0.1,0.3-0.2c0.4-0.2,0.8-0.4,1.2-0.5c0.1-0.1,0.3-0.1,0.4-0.2c0.3-0.1,0.6-0.2,0.9-0.3c0.3-0.1,0.6-0.2,0.9-0.3
					c0.2,0,0.3-0.1,0.5-0.1c0.1,0,0.2,0,0.3-0.1c0.8-0.2,1.7-0.4,2.3-0.5c-0.2,0.3-0.5,0.5-0.7,0.8c-0.3,0.3-0.6,0.6-0.9,0.9
					c-0.2,0.2-0.5,0.5-0.8,0.7c-0.2,0.2-0.4,0.3-0.6,0.5c-0.2,0.2-0.3,0.3-0.5,0.5c-0.2,0.2-0.3,0.3-0.5,0.4
					c-0.1,0.1-0.2,0.2-0.3,0.3c0,0-0.1,0-0.1,0.1c0,0,0,0-0.1,0.1c0,0,0,0,0,0c-0.8,0.6-1.6,1-2.3,1.1c-0.1,0-0.2,0-0.3,0
					c0,0-0.1,0-0.2,0c-0.4,0-0.8-0.3-1-0.7C37.1,72.9,37,72.5,37.3,72.1z M41.4,93.7H31.3l-0.1-0.9v0l-1.8-11.4h13.9L41.4,93.7z
					 M44.9,77.7v2.9H27.8v-2.9H44.9z M36.4,54.6c-0.1,0-0.2,0-0.3,0c-0.1,0-0.2,0-0.3,0c-0.4-0.1-0.6-0.2-0.8-0.5
					c-1.1-1.6,0.3-6.4,1.3-9c0.9,2.6,2.1,7.4,1,9C37,54.4,36.8,54.5,36.4,54.6z"/>
			</g>
			<g>
				<path class="st1" d="M45.6,68.6c-0.2,0.3-0.5,0.5-0.7,0.8c-0.3,0.3-0.6,0.6-0.9,0.9c-0.2,0.2-0.5,0.5-0.8,0.7
					c-0.2,0.2-0.4,0.3-0.6,0.5c-0.2,0.2-0.3,0.3-0.5,0.5c-0.2,0.2-0.3,0.3-0.5,0.4c-0.1,0.1-0.2,0.2-0.3,0.3c-0.1,0-0.1,0.1-0.2,0.1
					l1.8-3.7v0c0.1,0,0.2,0,0.3-0.1C44.1,68.9,44.9,68.7,45.6,68.6z"/>
			</g>
		</g>
		<g>
			<g>
				<path class="st18" d="M80.3,20.1v-2.3c0-1.2-1-2.2-2.2-2.2h-2.7V1h-1.2v14.7h-2.7c-1.2,0-2.2,1-2.2,2.2v2.3
					c-8.1,2-14,8.1-14,15.4c0,0.3,0.3,0.6,0.6,0.6h38c0.3,0,0.6-0.2,0.6-0.6C94.3,28.2,88.4,22.1,80.3,20.1z M56.3,34.9
					c0.3-6.5,5.8-11.9,13.1-13.7c1.7-0.4,3.5-0.6,5.3-0.6c1.8,0,3.6,0.2,5.3,0.6c7.4,1.8,12.9,7.2,13.1,13.7H56.3z"/>
				<path class="st16" d="M93.2,34.9H56.3c0.3-6.5,5.8-11.9,13.1-13.7c1.7-0.4,3.5-0.6,5.3-0.6c1.8,0,3.6,0.2,5.3,0.6
					C87.4,23,92.9,28.5,93.2,34.9z"/>
			</g>
		</g>
		<g>
			<path class="st18" d="M149.5,149.5H0V0h149.5V149.5z M2,147.5h145.5V2H2V147.5z"/>
		</g>
		<g>
			<g>
				<path class="st6" d="M62.7,76.1v2.4c0,0,0,0,0,0.1c0,0,0,0,0,0.1v5.5h-1.5v0h2.1V82h0C63.1,82,63,82,63,81.9
					c0-0.1,0.1-0.2,0.2-0.2h0v-5.9C63,75.9,62.8,76,62.7,76.1z M62.9,83.3c0.1,0,0.2,0.1,0.2,0.2c0,0.1-0.1,0.2-0.2,0.2
					s-0.2-0.1-0.2-0.2C62.7,83.4,62.8,83.3,62.9,83.3z M62.9,80.4c-0.1,0-0.2-0.1-0.2-0.2c0-0.1,0.1-0.2,0.2-0.2
					c0.1,0,0.2,0.1,0.2,0.2C63.1,80.3,63,80.4,62.9,80.4z"/>
				<path class="st18" d="M69.1,84.4c-0.1-0.1-0.2-0.2-0.4-0.2h-1.6v-6.4c0-1.4-1.2-2.6-2.6-2.6H64c-0.3,0-0.5,0-0.8,0.1v-1.7
					l0.9-0.5c0.1-0.1,0.2-0.2,0.1-0.3c-0.1-0.1-0.2-0.2-0.3-0.1L63.2,73v-2.6H64c0.1,0,0.3-0.1,0.3-0.3c0-0.1-0.1-0.3-0.3-0.3h-0.9
					C63,69,62.3,68.3,61.5,68l0.1-0.2c0.1-0.1,0-0.3-0.1-0.3c-0.1-0.1-0.3,0-0.3,0.1L61,67.8c-0.1,0-0.3,0-0.4,0h-0.5
					c-1,0-1.8,0.5-2.3,1.2l-0.7-0.4c-0.1-0.1-0.3,0-0.4,0.1c-0.1,0.1,0,0.3,0.1,0.4l0.7,0.5c-0.2,0.4-0.3,0.8-0.3,1.2V73l-0.9,0.1
					c-0.1,0-0.2,0.2-0.2,0.3c0,0.1,0.1,0.2,0.2,0.2h0l0.8-0.1v2.1l-0.5-0.1c-0.1,0-0.3,0-0.3,0.2c0,0.1,0,0.3,0.2,0.3l0.6,0.2v1.3
					l-0.5,0c-0.1,0-0.3,0.1-0.3,0.2c0,0.1,0.1,0.3,0.2,0.3l0.6,0v2l-0.4,0.1c-0.1,0-0.2,0.2-0.2,0.3c0,0.1,0.1,0.2,0.2,0.2
					c0,0,0.1,0,0.1,0l0.2-0.1V82l-0.4-0.3c-0.1-0.1-0.3-0.1-0.4,0.1c-0.1,0.1,0,0.3,0.1,0.4l0.7,0.4v1.6h-2.1
					c-0.1,0-0.3,0.1-0.3,0.2c-0.1,0.1-0.1,0.2-0.1,0.4l2,9.6c0,0.2,0.2,0.4,0.4,0.4H67c0.2,0,0.4-0.2,0.5-0.4l1.7-9.6
					C69.2,84.6,69.1,84.5,69.1,84.4z M57.7,82.9l0.4,0.3c0,0,0.1,0,0.1,0c0.1,0,0.2,0,0.2-0.1c0.1-0.1,0-0.3-0.1-0.4l-0.7-0.5v-1.8
					l0.8-0.3c0.1-0.1,0.2-0.2,0.2-0.3c0-0.1-0.2-0.2-0.3-0.1l-0.6,0.2v-1.8l1,0.1c0,0,0,0,0,0c0.1,0,0.2-0.1,0.3-0.2
					c0-0.2-0.1-0.3-0.2-0.3l-1-0.1v-1.2l0.5,0.1c0,0,0,0,0.1,0c0.1,0,0.2-0.1,0.2-0.2c0-0.1-0.1-0.3-0.2-0.3l-0.6-0.2v-2.3l0.8-0.1
					c0.1,0,0.2-0.2,0.2-0.3c0-0.1-0.2-0.2-0.3-0.2L57.7,73v-2.3c0-0.3,0.1-0.6,0.2-0.9l0.4,0.2c0,0,0.1,0,0.1,0c0.1,0,0.2,0,0.2-0.1
					c0.1-0.1,0-0.3-0.1-0.4l-0.4-0.2c0.4-0.6,1.1-0.9,1.9-0.9h0.5c0.1,0,0.1,0,0.2,0L60.5,69c-0.1,0.1,0,0.3,0.1,0.4
					c0,0,0.1,0,0.1,0c0.1,0,0.2-0.1,0.2-0.1l0.4-0.8c0.6,0.2,1.1,0.8,1.3,1.4H62c-0.2,0-0.3,0.1-0.3,0.3c0,0.1,0.1,0.3,0.3,0.3h0.6
					v2.9l-0.8,0.4c-0.1,0.1-0.2,0.2-0.1,0.3c0,0.1,0.1,0.1,0.2,0.1c0,0,0.1,0,0.1,0l0.5-0.3v1.7c-0.9,0.5-1.5,1.4-1.5,2.5v4.7
					c0,0-0.1,0-0.1,0l-1,0.3c-0.1,0-0.2,0.2-0.2,0.3c0,0.1,0.1,0.2,0.2,0.2c0,0,0.1,0,0.1,0l0.9-0.3v0.9h0.5v-6.1
					c0-0.8,0.4-1.5,1-1.9c0.2-0.1,0.3-0.2,0.5-0.3c0.2-0.1,0.5-0.1,0.8-0.1h0.5c1.2,0,2.1,0.9,2.1,2.1v6.3h-3.4v0h-2.1v0h-3.4V82.9z
					 M66.6,93.8h-9.1l-1.8-8.7h12.5L66.6,93.8z"/>
			</g>
			<g>
				<path class="st1" d="M64.5,75.7H64c-0.3,0-0.5,0-0.8,0.1c-0.2,0.1-0.4,0.2-0.5,0.3c-0.6,0.4-1,1.1-1,1.9v6.1h-0.3v0h1.8v0h3.4
					v-6.3C66.6,76.7,65.7,75.7,64.5,75.7z M65.7,76.8c0.1,0,0.2,0.1,0.2,0.2c0,0.1-0.1,0.2-0.2,0.2c-0.1,0-0.2-0.1-0.2-0.2
					C65.6,76.9,65.7,76.8,65.7,76.8z M65.2,77.5c0.1,0,0.2,0.1,0.2,0.2c0,0.1-0.1,0.2-0.2,0.2c-0.1,0-0.2-0.1-0.2-0.2
					C65.1,77.6,65.1,77.5,65.2,77.5z M64.7,76.1c0.1,0,0.2,0.1,0.2,0.2c0,0.1-0.1,0.2-0.2,0.2c-0.1,0-0.2-0.1-0.2-0.2
					C64.6,76.1,64.6,76.1,64.7,76.1z M64.5,76.9c0.1,0,0.2,0.1,0.2,0.2c0,0.1-0.1,0.2-0.2,0.2c-0.1,0-0.2-0.1-0.2-0.2
					C64.3,77,64.4,76.9,64.5,76.9z M64.3,78.4c0.1,0,0.2,0.1,0.2,0.2c0,0.1-0.1,0.1-0.2,0.1c-0.1,0-0.2-0.1-0.2-0.1
					C64.2,78.5,64.2,78.4,64.3,78.4z M63.7,77.8c0,0.1-0.1,0.2-0.2,0.2c-0.1,0-0.2-0.1-0.2-0.2c0-0.1,0.1-0.1,0.2-0.1
					C63.6,77.7,63.7,77.8,63.7,77.8z M63.3,76.4c0.1,0,0.2,0.1,0.2,0.2c0,0.1-0.1,0.2-0.2,0.2c-0.1,0-0.1,0-0.1-0.1v-0.1
					C63.2,76.4,63.3,76.4,63.3,76.4z M62.9,80c0.1,0,0.2,0.1,0.2,0.2c0,0.1-0.1,0.2-0.2,0.2c-0.1,0-0.2-0.1-0.2-0.2
					C62.8,80.1,62.8,80,62.9,80z M62.9,83.3c0.1,0,0.2,0.1,0.2,0.2c0,0.1-0.1,0.2-0.2,0.2s-0.2-0.1-0.2-0.2
					C62.7,83.4,62.8,83.3,62.9,83.3z M62.7,78.5C62.7,78.5,62.7,78.5,62.7,78.5c0,0.1,0,0.1,0,0.1c0,0.1-0.1,0.1-0.1,0.1
					c-0.1,0-0.2-0.1-0.2-0.2c0-0.1,0.1-0.2,0.2-0.2C62.6,78.4,62.7,78.4,62.7,78.5z M62.3,81.4c-0.1,0-0.2-0.1-0.2-0.2
					c0-0.1,0.1-0.2,0.2-0.2c0.1,0,0.2,0.1,0.2,0.2C62.5,81.3,62.4,81.4,62.3,81.4z M62.5,82.6c0,0.1-0.1,0.2-0.2,0.2
					c-0.1,0-0.2-0.1-0.2-0.2s0.1-0.2,0.2-0.2C62.4,82.4,62.5,82.5,62.5,82.6z M62.3,77.4c0.1,0,0.2,0.1,0.2,0.2
					c0,0.1-0.1,0.2-0.2,0.2c-0.1,0-0.2-0.1-0.2-0.2C62.2,77.4,62.2,77.4,62.3,77.4z M62,79.6c0.1,0,0.2,0.1,0.2,0.2
					c0,0.1-0.1,0.2-0.2,0.2s-0.2-0.1-0.2-0.2C61.8,79.6,61.9,79.6,62,79.6z M63.2,82L63.2,82C63.1,82,63,82,63,81.9
					c0-0.1,0.1-0.2,0.2-0.2h0c0.1,0,0.1,0.1,0.1,0.2C63.3,82,63.3,82,63.2,82z M63.5,79.5c-0.1,0-0.2-0.1-0.2-0.2
					c0-0.1,0.1-0.2,0.2-0.2c0.1,0,0.2,0.1,0.2,0.2C63.6,79.4,63.6,79.5,63.5,79.5z M63.7,83.2c-0.1,0-0.2-0.1-0.2-0.2
					c0-0.1,0.1-0.2,0.2-0.2c0.1,0,0.2,0.1,0.2,0.2C63.9,83.2,63.8,83.2,63.7,83.2z M63.9,81c-0.1,0-0.2-0.1-0.2-0.2
					c0-0.1,0.1-0.2,0.2-0.2c0.1,0,0.2,0.1,0.2,0.2C64.1,80.9,64,81,63.9,81z M64.3,82.4c-0.1,0-0.2-0.1-0.2-0.2
					c0-0.1,0.1-0.2,0.2-0.2c0.1,0,0.2,0.1,0.2,0.2C64.5,82.4,64.4,82.4,64.3,82.4z M64.6,80.2c-0.1,0-0.2-0.1-0.2-0.2
					c0-0.1,0.1-0.2,0.2-0.2c0.1,0,0.2,0.1,0.2,0.2C64.7,80.1,64.7,80.2,64.6,80.2z M64.7,81.5c0-0.1,0.1-0.2,0.2-0.2
					c0.1,0,0.2,0.1,0.2,0.2c0,0.1-0.1,0.2-0.2,0.2C64.8,81.6,64.7,81.6,64.7,81.5z M65,83.6c-0.1,0-0.2-0.1-0.2-0.2
					c0-0.1,0.1-0.2,0.2-0.2s0.2,0.1,0.2,0.2C65.2,83.5,65.1,83.6,65,83.6z M65.1,80.8c-0.1,0-0.2-0.1-0.2-0.2c0-0.1,0.1-0.2,0.2-0.2
					c0.1,0,0.2,0.1,0.2,0.2C65.3,80.7,65.2,80.8,65.1,80.8z M65.2,79.4c0-0.1,0.1-0.2,0.2-0.2c0.1,0,0.2,0.1,0.2,0.2
					c0,0.1-0.1,0.2-0.2,0.2C65.3,79.6,65.2,79.5,65.2,79.4z M65.6,82.4c-0.1,0-0.2-0.1-0.2-0.2c0-0.1,0.1-0.2,0.2-0.2
					c0.1,0,0.2,0.1,0.2,0.2C65.7,82.4,65.7,82.4,65.6,82.4z M65.7,81.2c0-0.1,0.1-0.2,0.2-0.2c0.1,0,0.2,0.1,0.2,0.2
					c0,0.1-0.1,0.2-0.2,0.2C65.8,81.4,65.7,81.3,65.7,81.2z M66.1,83.2c-0.1,0-0.2-0.1-0.2-0.2c0-0.1,0.1-0.2,0.2-0.2
					c0.1,0,0.2,0.1,0.2,0.2C66.2,83.2,66.2,83.2,66.1,83.2z M66.1,80.4c-0.1,0-0.2-0.1-0.2-0.2c0-0.1,0.1-0.2,0.2-0.2
					c0.1,0,0.2,0.1,0.2,0.2C66.2,80.3,66.2,80.4,66.1,80.4z M66.1,78.7c-0.1,0-0.2-0.1-0.2-0.2c0-0.1,0.1-0.2,0.2-0.2
					c0.1,0,0.2,0.1,0.2,0.2C66.2,78.6,66.2,78.7,66.1,78.7z"/>
				<path class="st6" d="M61.1,84.2L61.1,84.2l2.1,0v0H61.1z"/>
			</g>
			<g>
				<path class="st18" d="M59.6,71.5c0,0.1-0.1,0.1-0.2,0.1c-0.1,0-0.1,0-0.2,0l-0.5-0.4c-0.1-0.1-0.1-0.2-0.1-0.4
					c0.1-0.1,0.2-0.1,0.4,0l0.5,0.4C59.7,71.3,59.7,71.4,59.6,71.5z"/>
			</g>
			<g>
				<path class="st18" d="M61.5,72.8c0,0.1,0,0.3-0.2,0.3l-0.8,0.2c0,0,0,0-0.1,0c-0.1,0-0.2-0.1-0.2-0.2c0-0.1,0-0.3,0.2-0.3
					l0.8-0.2C61.3,72.6,61.4,72.6,61.5,72.8z"/>
			</g>
			<g>
				<path class="st18" d="M60.4,75.4c0,0.1-0.1,0.2-0.2,0.2c0,0,0,0-0.1,0l-1-0.3c-0.1,0-0.2-0.2-0.2-0.3c0-0.1,0.2-0.2,0.3-0.2
					l1,0.3C60.4,75.1,60.4,75.3,60.4,75.4z"/>
			</g>
			<g>
				<path class="st18" d="M60.9,76.9l-0.9,0.4c0,0-0.1,0-0.1,0c-0.1,0-0.2,0-0.2-0.1c-0.1-0.1,0-0.3,0.1-0.3l0.9-0.4
					c0.1-0.1,0.3,0,0.3,0.1C61.1,76.7,61,76.9,60.9,76.9z"/>
			</g>
			<g>
				<path class="st18" d="M59.5,81.9c0,0-0.1,0-0.2,0c-0.1,0-0.2,0-0.2-0.1l-0.5-0.6c-0.1-0.1-0.1-0.3,0-0.4c0.1-0.1,0.3-0.1,0.4,0
					l0.5,0.6C59.7,81.7,59.7,81.8,59.5,81.9z"/>
			</g>
			<g>
				<path class="st18" d="M60.5,79.9c0,0.2-0.1,0.3-0.2,0.3c0,0,0,0,0,0c-0.1,0-0.2-0.1-0.3-0.2l-0.1-0.9c0-0.2,0.1-0.3,0.2-0.3
					c0.1,0,0.3,0.1,0.3,0.2L60.5,79.9z"/>
			</g>
			<g>
				<path class="st18" d="M63.5,76.5c0,0.1-0.1,0.2-0.2,0.2c-0.1,0-0.1,0-0.1-0.1v-0.1c0,0,0.1-0.1,0.1-0.1
					C63.4,76.4,63.5,76.5,63.5,76.5z"/>
				<path d="M63.2,76.5v0.1C63.2,76.6,63.2,76.6,63.2,76.5C63.2,76.5,63.2,76.5,63.2,76.5z"/>
			</g>
			<g>
				<path class="st18" d="M65.9,77c0,0.1-0.1,0.2-0.2,0.2c-0.1,0-0.2-0.1-0.2-0.2c0-0.1,0.1-0.2,0.2-0.2
					C65.8,76.8,65.9,76.9,65.9,77z"/>
			</g>
			<g>
				<path class="st18" d="M66.2,78.6c0,0.1-0.1,0.2-0.2,0.2c-0.1,0-0.2-0.1-0.2-0.2c0-0.1,0.1-0.2,0.2-0.2
					C66.2,78.4,66.2,78.5,66.2,78.6z"/>
			</g>
			<g>
				<path class="st18" d="M66.1,81.2c0,0.1-0.1,0.2-0.2,0.2c-0.1,0-0.2-0.1-0.2-0.2c0-0.1,0.1-0.2,0.2-0.2
					C66,81.1,66.1,81.2,66.1,81.2z"/>
			</g>
			<g>
				<path class="st18" d="M66.2,83.1c0,0.1-0.1,0.2-0.2,0.2c-0.1,0-0.2-0.1-0.2-0.2c0-0.1,0.1-0.2,0.2-0.2
					C66.2,82.9,66.2,83,66.2,83.1z"/>
			</g>
			<g>
				<path class="st18" d="M66.2,80.3c0,0.1-0.1,0.2-0.2,0.2c-0.1,0-0.2-0.1-0.2-0.2c0-0.1,0.1-0.2,0.2-0.2
					C66.2,80.1,66.2,80.2,66.2,80.3z"/>
			</g>
			<g>
				<path class="st18" d="M64.5,82.3c0,0.1-0.1,0.2-0.2,0.2c-0.1,0-0.2-0.1-0.2-0.2c0-0.1,0.1-0.2,0.2-0.2
					C64.4,82.1,64.5,82.2,64.5,82.3z"/>
			</g>
			<g>
				<path class="st18" d="M64.5,78.6c0,0.1-0.1,0.1-0.2,0.1c-0.1,0-0.2-0.1-0.2-0.1c0-0.1,0.1-0.2,0.2-0.2
					C64.4,78.4,64.5,78.5,64.5,78.6z"/>
			</g>
			<g>
				<path class="st18" d="M64.7,80c0,0.1-0.1,0.2-0.2,0.2c-0.1,0-0.2-0.1-0.2-0.2c0-0.1,0.1-0.2,0.2-0.2
					C64.7,79.9,64.7,79.9,64.7,80z"/>
			</g>
			<g>
				<path class="st18" d="M65,81.5c0,0.1-0.1,0.2-0.2,0.2c-0.1,0-0.2-0.1-0.2-0.2c0-0.1,0.1-0.2,0.2-0.2C65,81.3,65,81.4,65,81.5z"
					/>
			</g>
			<g>
				<path class="st18" d="M65.5,79.4c0,0.1-0.1,0.2-0.2,0.2c-0.1,0-0.2-0.1-0.2-0.2c0-0.1,0.1-0.2,0.2-0.2
					C65.5,79.2,65.5,79.3,65.5,79.4z"/>
			</g>
			<g>
				<path class="st18" d="M65.7,82.3c0,0.1-0.1,0.2-0.2,0.2c-0.1,0-0.2-0.1-0.2-0.2c0-0.1,0.1-0.2,0.2-0.2
					C65.7,82.1,65.7,82.2,65.7,82.3z"/>
			</g>
			<g>
				<path class="st18" d="M65.3,80.6c0,0.1-0.1,0.2-0.2,0.2c-0.1,0-0.2-0.1-0.2-0.2c0-0.1,0.1-0.2,0.2-0.2
					C65.2,80.5,65.3,80.5,65.3,80.6z"/>
			</g>
			<g>
				<path class="st18" d="M65.2,83.4c0,0.1-0.1,0.2-0.2,0.2s-0.2-0.1-0.2-0.2c0-0.1,0.1-0.2,0.2-0.2S65.2,83.4,65.2,83.4z"/>
			</g>
			<g>
				<path class="st18" d="M64.9,76.2c0,0.1-0.1,0.2-0.2,0.2c-0.1,0-0.2-0.1-0.2-0.2c0-0.1,0.1-0.2,0.2-0.2
					C64.8,76.1,64.9,76.1,64.9,76.2z"/>
			</g>
			<g>
				<path class="st18" d="M62.7,78.6C62.7,78.6,62.7,78.6,62.7,78.6c0,0.1-0.1,0.2-0.2,0.2c-0.1,0-0.2-0.1-0.2-0.2
					c0-0.1,0.1-0.2,0.2-0.2C62.6,78.4,62.7,78.4,62.7,78.6C62.7,78.5,62.7,78.5,62.7,78.6z"/>
			</g>
			<g>
				<path class="st18" d="M62.1,79.7c0,0.1-0.1,0.2-0.2,0.2s-0.2-0.1-0.2-0.2c0-0.1,0.1-0.2,0.2-0.2S62.1,79.6,62.1,79.7z"/>
			</g>
			<g>
				<path class="st18" d="M62.5,77.5c0,0.1-0.1,0.2-0.2,0.2c-0.1,0-0.2-0.1-0.2-0.2c0-0.1,0.1-0.2,0.2-0.2
					C62.4,77.4,62.5,77.4,62.5,77.5z"/>
			</g>
			<g>
				<path class="st18" d="M63.6,79.3c0,0.1-0.1,0.2-0.2,0.2c-0.1,0-0.2-0.1-0.2-0.2c0-0.1,0.1-0.2,0.2-0.2
					C63.6,79.2,63.6,79.2,63.6,79.3z"/>
			</g>
			<g>
				<path class="st18" d="M64.1,80.8c0,0.1-0.1,0.2-0.2,0.2c-0.1,0-0.2-0.1-0.2-0.2c0-0.1,0.1-0.2,0.2-0.2
					C64,80.6,64.1,80.7,64.1,80.8z"/>
			</g>
			<g>
				<path class="st18" d="M62.5,82.6c0,0.1-0.1,0.2-0.2,0.2c-0.1,0-0.2-0.1-0.2-0.2s0.1-0.2,0.2-0.2C62.4,82.4,62.5,82.5,62.5,82.6z
					"/>
			</g>
			<g>
				<path class="st18" d="M63.7,77.8c0,0.1-0.1,0.2-0.2,0.2c-0.1,0-0.2-0.1-0.2-0.2c0-0.1,0.1-0.1,0.2-0.1
					C63.6,77.7,63.7,77.8,63.7,77.8z"/>
			</g>
			<g>
				<path class="st18" d="M65.4,77.7c0,0.1-0.1,0.2-0.2,0.2c-0.1,0-0.2-0.1-0.2-0.2c0-0.1,0.1-0.2,0.2-0.2
					C65.3,77.5,65.4,77.6,65.4,77.7z"/>
			</g>
			<g>
				<path class="st18" d="M64.6,77.1c0,0.1-0.1,0.2-0.2,0.2c-0.1,0-0.2-0.1-0.2-0.2c0-0.1,0.1-0.2,0.2-0.2
					C64.6,76.9,64.6,77,64.6,77.1z"/>
			</g>
			<g>
				<path class="st18" d="M63.1,80.2c0,0.1-0.1,0.2-0.2,0.2c-0.1,0-0.2-0.1-0.2-0.2c0-0.1,0.1-0.2,0.2-0.2
					C63,80,63.1,80.1,63.1,80.2z"/>
			</g>
			<g>
				<path class="st18" d="M63.9,83.1c0,0.1-0.1,0.2-0.2,0.2c-0.1,0-0.2-0.1-0.2-0.2c0-0.1,0.1-0.2,0.2-0.2
					C63.8,82.9,63.9,83,63.9,83.1z"/>
			</g>
			<g>
				<path class="st18" d="M63.3,81.9c0,0.1-0.1,0.1-0.1,0.2h0C63.1,82,63,82,63,81.9c0-0.1,0.1-0.2,0.2-0.2h0
					C63.3,81.7,63.3,81.8,63.3,81.9z"/>
			</g>
			<g>
				<path class="st18" d="M62.5,81.2c0,0.1-0.1,0.2-0.2,0.2c-0.1,0-0.2-0.1-0.2-0.2c0-0.1,0.1-0.2,0.2-0.2
					C62.4,81.1,62.5,81.2,62.5,81.2z"/>
			</g>
			<g>
				<path class="st18" d="M63,83.5c0,0.1-0.1,0.2-0.2,0.2s-0.2-0.1-0.2-0.2c0-0.1,0.1-0.2,0.2-0.2S63,83.4,63,83.5z"/>
			</g>
		</g>
	</g>
	<g>
		<path class="st18" d="M180.4,121.9v-1.2h0.1c3,0,5.4-0.9,7.2-2.7c1.8-1.8,2.7-4.2,2.7-7.2V40.4c0-3-0.9-5.4-2.8-7.2
			c-1.9-1.8-4.3-2.7-7.2-2.7v-1.2H193c4.2,0,7.4-0.5,9.6-1.4c2.1-0.9,3.5-2,4.3-3.3h1.2v65l21-17.7c3.4-2.8,5.4-5.3,6.1-7.5
			c0.5-2.1,0-3.3-1.6-3.6l-1.6-0.4v-1.2h18.4v1.2l-1.2,0.3c-2,0.3-4,1.2-6.1,2.5c-2.1,1.3-5.1,3.6-9.1,6.9l-8.5,7.2l24.6,37.8
			c1.6,2.1,2.9,3.5,4.1,4.4c1.2,0.9,2.4,1.3,3.8,1.3v1.2h-32.6v-1.2c2.1,0,3.4-0.2,4.1-0.5c0.7-0.3,1.1-0.8,1.1-1.6
			c0-0.7-0.3-1.7-0.9-2.8c-0.3-0.7-0.7-1.4-1.2-2.3c-0.5-0.9-1-1.8-1.7-2.9l-14.1-22.6l-4.6,4v18.9c0,3,0.9,5.4,2.7,7.2
			c1.8,1.8,4.2,2.7,7.2,2.7h0.1v1.2H180.4z"/>
		<path class="st18" d="M277.2,123.6c-5,0-9.1-1.4-12.1-4.1c-3-2.7-4.6-6.3-4.6-10.7c0-1.9,0.3-3.7,1-5.4c0.7-1.7,1.9-3.4,3.7-5
			c1.9-1.6,4.5-3.4,7.8-5.1c3.3-1.8,7.7-3.6,13.1-5.6l11.5-4.2v-9.3c0-4.7-0.7-8.4-2.2-11.2c-1.5-2.8-3.5-4.1-6.2-4.1
			c-3.1,0.1-5.8,2.1-8,6.2c-2.2,4-3.6,9.6-4.4,16.8l-13.3-7.7c1.4-3.4,3.5-6.3,6.4-8.9c2.9-2.6,6.2-4.5,9.9-5.9s7.7-2.1,11.8-2.1
			c7,0,12.7,2,17.1,5.9c4.4,3.9,6.6,9.2,6.6,16v29.8c0,4.8,1.6,7.2,4.8,7.2c1.9,0,3.7-1,5.6-3.1l1,0.9c-2.1,2.9-4.7,5.2-7.8,7
			c-3.1,1.8-6,2.7-8.9,2.7c-3.1,0-5.8-1.1-8.1-3.2c-2.3-2.1-3.7-5-4.3-8.5c-4,4.1-7.6,7.1-10.6,9
			C284.2,122.7,280.9,123.6,277.2,123.6z M286.5,116c1.8,0,3.6-0.5,5.3-1.4c1.7-0.9,3.6-2.4,5.7-4.4l0.1-25.1l-4.9,1.9
			c-4.2,1.6-7.4,3.1-9.6,4.8c-2.2,1.6-3.8,3.4-4.6,5.4c-0.9,2-1.3,4.2-1.3,6.8c0,3.5,0.9,6.4,2.7,8.7
			C281.5,114.8,283.8,116,286.5,116z"/>
		<path class="st18" d="M327.5,121.9v-1.2c3,0,5.4-0.9,7.2-2.7c1.9-1.8,2.8-4.2,2.8-7.2V40.4c0-3-0.9-5.4-2.8-7.2
			c-1.9-1.8-4.3-2.7-7.2-2.7v-1.2h12.6c4.2,0,7.4-0.5,9.6-1.4c2.1-0.9,3.5-2,4.3-3.3h1.2v86.2c0,3.1,0.9,5.5,2.8,7.2
			c1.9,1.8,4.3,2.7,7.2,2.7v1.2H327.5z"/>
		<path class="st18" d="M385.2,123.6c-5,0-9.1-1.4-12.1-4.1c-3-2.7-4.6-6.3-4.6-10.7c0-1.9,0.3-3.7,1-5.4c0.7-1.7,1.9-3.4,3.7-5
			c1.9-1.6,4.5-3.4,7.8-5.1c3.3-1.8,7.7-3.6,13.1-5.6l11.5-4.2v-9.3c0-4.7-0.7-8.4-2.2-11.2c-1.5-2.8-3.5-4.1-6.2-4.1
			c-3.1,0.1-5.8,2.1-8,6.2c-2.2,4-3.6,9.6-4.4,16.8l-13.3-7.7c1.4-3.4,3.5-6.3,6.4-8.9c2.9-2.6,6.2-4.5,9.9-5.9s7.7-2.1,11.8-2.1
			c7,0,12.7,2,17.1,5.9c4.4,3.9,6.6,9.2,6.6,16v29.8c0,4.8,1.6,7.2,4.8,7.2c1.9,0,3.7-1,5.6-3.1l1,0.9c-2.1,2.9-4.7,5.2-7.8,7
			c-3.1,1.8-6,2.7-8.9,2.7c-3.1,0-5.8-1.1-8.1-3.2c-2.3-2.1-3.7-5-4.3-8.5c-4,4.1-7.6,7.1-10.6,9
			C392.2,122.7,388.9,123.6,385.2,123.6z M394.5,116c1.8,0,3.6-0.5,5.3-1.4c1.7-0.9,3.6-2.4,5.7-4.4l0.1-25.1l-4.9,1.9
			c-4.2,1.6-7.4,3.1-9.6,4.8c-2.2,1.6-3.8,3.4-4.6,5.4c-0.9,2-1.3,4.2-1.3,6.8c0,3.5,0.9,6.4,2.7,8.7
			C389.5,114.8,391.8,116,394.5,116z"/>
		<path class="st18" d="M434.9,121.9v-1.2c1.5-0.2,3.3-1.1,5.6-2.5c2-1.4,4.3-4,7-7.8l11.7-16.2c-1.3-2.1-2.6-4.3-3.8-6.4
			s-2.5-4.2-3.8-6.3c-1.3-2.1-2.7-4.3-4-6.5c-1.4-2.2-2.7-4.5-4.1-6.9c-1.7-2.7-3.2-4.6-4.3-5.7c-1.2-1.1-2.6-1.7-4.2-1.9v-1.2H467
			v1.2c-2.6,0.2-4.1,1.3-4.3,3.5c-0.2,2.1,0.5,4.5,2,7.2c1.2,2.1,2.4,4.2,3.6,6.2c1.2,2,2.3,3.9,3.5,5.8l8.3-11.6
			c2.1-2.9,2.9-5.4,2.7-7.5c-0.3-2.1-1.7-3.3-4.1-3.5v-1.2h17.9v1.2c-2.3,0.3-4.5,1.1-6.6,2.5c-2.1,1.4-4.5,4-7.2,7.8l-10,13.8
			c2.9,4.9,5.8,9.8,8.6,14.5c2.9,4.7,6,9.9,9.4,15.4c1.4,2.2,2.6,3.8,3.6,4.7c1,0.9,2.3,1.4,3.9,1.6v1.2h-32.1v-1.2
			c2.6-0.2,4-1.2,4.4-3.2c0.4-2-0.3-4.5-2.1-7.5c-1.4-2.6-2.8-5-4.2-7.4c-1.4-2.3-2.8-4.7-4.2-7l-10.9,15.3
			c-1.9,2.6-2.5,4.9-1.8,6.7c0.7,1.9,2.5,2.9,5.4,3v1.2H434.9z"/>
		<path class="st18" d="M501,149.6c-3.4,0-6.6-0.7-9.8-2l4.8-14.5c2.1,0.8,4.3,1.5,6.7,2.1c2.4,0.6,4.9,0.9,7.4,0.9
			c3.1,0,6.1-0.6,8.8-1.9c2.8-1.3,4.8-3.6,6.2-7.1l1.4-3.3L502.1,67c-0.8-2-1.9-3.6-3.3-4.8c-1.4-1.2-3.2-1.8-5.6-1.9v-1.2h35.7v1.2
			c-2.2,0.3-3.9,1-5.1,2.3c-1.2,1.3-1.8,3-1.8,5.1c0,1.8,0.4,3.7,1.2,5.6l12.5,29.3l12.5-29.3c0.8-1.9,1.2-3.7,1.2-5.6
			c0-2.1-0.6-3.7-1.8-5.1c-1.2-1.3-2.9-2.1-5.3-2.3v-1.2h17.1v1.2c-1.9,0.4-3.5,1.6-4.8,3.6c-1.3,2-2.7,4.8-4.2,8.2l-25.2,58.6
			c-2.6,6.1-6.1,10.7-10.3,14C510.8,148,506.1,149.6,501,149.6z"/>
		<path class="st1" d="M562.1,123.6c-2.9,0-5.4-1-7.4-3.1c-2.1-2.1-3.1-4.5-3.1-7.4c0-3,1.1-5.6,3.2-7.5c2.1-2,4.6-3,7.3-3
			c2.7,0,5.1,1,7.3,3c2.1,2,3.2,4.5,3.2,7.5c0,2.9-1,5.4-3.1,7.4C567.4,122.6,564.9,123.6,562.1,123.6z"/>
	</g>
</g>
</svg>
