<svg width="36" height="36" viewBox="0 0 36 36" fill="none" xmlns="http://www.w3.org/2000/svg">
<path d="M18 0C8.0586 0 0 8.0586 0 18C0 25.6266 4.7448 32.139 11.4408 34.7616C11.2842 33.3378 11.1402 31.1526 11.5038 29.5992C11.8314 28.1952 13.6134 20.6514 13.6134 20.6514C13.6134 20.6514 13.0752 19.5732 13.0752 17.9802C13.0752 15.4764 14.526 13.6098 16.3314 13.6098C17.8668 13.6098 18.6084 14.7636 18.6084 16.1442C18.6084 17.6886 17.6256 19.998 17.118 22.1364C16.6932 23.9292 18.0162 25.389 19.7838 25.389C22.9824 25.389 25.4412 22.0158 25.4412 17.1468C25.4412 12.8376 22.3452 9.8244 17.9226 9.8244C12.8016 9.8244 9.7956 13.6656 9.7956 17.6364C9.7956 19.1826 10.3914 20.8422 11.1348 21.744C11.2824 21.9222 11.3022 22.0788 11.259 22.2606C11.1222 22.8294 10.8198 24.0516 10.7604 24.3018C10.683 24.6312 10.4994 24.7014 10.1592 24.5412C7.911 23.4936 6.5052 20.2068 6.5052 17.568C6.5052 11.8908 10.6308 6.6744 18.3996 6.6744C24.6438 6.6744 29.4966 11.124 29.4966 17.0712C29.4966 23.2758 25.5852 28.2672 20.1564 28.2672C18.333 28.2672 16.6176 27.3186 16.0308 26.2008C16.0308 26.2008 15.1272 29.637 14.9094 30.4812C14.5026 32.0436 13.4064 34.0056 12.672 35.2008C14.355 35.7174 16.1442 36 18 36C27.9396 36 36 27.9396 36 18C36 8.0604 27.9414 0 18 0Z" fill="white"/>
</svg>
